<svg width="64" height="64" viewBox="0 0 64 64" fill="none" xmlns="http://www.w3.org/2000/svg">
<path d="M37.3333 38.0054V43.5787C34.9198 42.7254 32.3367 42.4637 29.8011 42.8155C27.2654 43.1673 24.8512 44.1224 22.7611 45.6006C20.6711 47.0788 18.9662 49.0369 17.7898 51.3105C16.6133 53.5841 15.9995 56.1068 16 58.6667H10.6667C10.6654 55.4102 11.4097 52.1966 12.8426 49.2723C14.2754 46.3479 16.3587 43.7904 18.9328 41.7957C21.507 39.801 24.5036 38.4221 27.6931 37.7646C30.8826 37.1072 34.1802 37.1913 37.3333 38.0054ZM32 34.6667C23.16 34.6667 16 27.5067 16 18.6667C16 9.82675 23.16 2.66675 32 2.66675C40.84 2.66675 48 9.82675 48 18.6667C48 27.5067 40.84 34.6667 32 34.6667ZM32 29.3334C37.8933 29.3334 42.6667 24.5601 42.6667 18.6667C42.6667 12.7734 37.8933 8.00008 32 8.00008C26.1067 8.00008 21.3333 12.7734 21.3333 18.6667C21.3333 24.5601 26.1067 29.3334 32 29.3334ZM47.448 53.1041L56.8747 43.6774L60.648 47.4481L47.448 60.6481L38.0187 51.2188L41.792 47.4481L47.448 53.1041Z" fill="#CCCCCC"/>
</svg>
