<svg width="64" height="64" viewBox="0 0 64 64" fill="none" xmlns="http://www.w3.org/2000/svg">
<path d="M48 48H47.5938C47.1146 45.6667 46.2708 43.5208 45.0625 41.5625C43.8542 39.6042 42.3854 37.9167 40.6562 36.5C38.9271 35.0833 36.9792 33.9792 34.8125 33.1875C32.6458 32.3958 30.375 32 28 32C26.1667 32 24.3958 32.2396 22.6875 32.7188C20.9792 33.1979 19.3854 33.8646 17.9062 34.7188C16.4271 35.5729 15.0833 36.6146 13.875 37.8438C12.6667 39.0729 11.625 40.4271 10.75 41.9062C9.875 43.3854 9.19792 44.9792 8.71875 46.6875C8.23958 48.3958 8 50.1667 8 52H4C4 49.5 4.36458 47.0938 5.09375 44.7812C5.82292 42.4688 6.875 40.3333 8.25 38.375C9.625 36.4167 11.25 34.6771 13.125 33.1562C15 31.6354 17.125 30.4375 19.5 29.5625C17.1458 28.0208 15.3125 26.0833 14 23.75C12.6875 21.4167 12.0208 18.8333 12 16C12 13.7917 12.4167 11.7188 13.25 9.78125C14.0833 7.84375 15.2188 6.14583 16.6562 4.6875C18.0938 3.22917 19.7917 2.08333 21.75 1.25C23.7083 0.416667 25.7917 0 28 0C30.2083 0 32.2812 0.416667 34.2188 1.25C36.1562 2.08333 37.8542 3.21875 39.3125 4.65625C40.7708 6.09375 41.9167 7.79167 42.75 9.75C43.5833 11.7083 44 13.7917 44 16C44 17.375 43.8333 18.7188 43.5 20.0312C43.1667 21.3438 42.6667 22.5833 42 23.75C41.3333 24.9167 40.5521 25.9896 39.6562 26.9688C38.7604 27.9479 37.7083 28.8125 36.5 29.5625C38.8333 30.4583 40.9792 31.6875 42.9375 33.25C44.8958 34.8125 46.5833 36.6458 48 38.75V48ZM16 16C16 17.6667 16.3125 19.2188 16.9375 20.6562C17.5625 22.0938 18.4167 23.3646 19.5 24.4688C20.5833 25.5729 21.8542 26.4375 23.3125 27.0625C24.7708 27.6875 26.3333 28 28 28C29.6458 28 31.1979 27.6875 32.6562 27.0625C34.1146 26.4375 35.3854 25.5833 36.4688 24.5C37.5521 23.4167 38.4167 22.1458 39.0625 20.6875C39.7083 19.2292 40.0208 17.6667 40 16C40 14.3542 39.6875 12.8021 39.0625 11.3438C38.4375 9.88542 37.5833 8.61458 36.5 7.53125C35.4167 6.44792 34.1354 5.58333 32.6562 4.9375C31.1771 4.29167 29.625 3.97917 28 4C26.3333 4 24.7812 4.3125 23.3438 4.9375C21.9062 5.5625 20.6354 6.41667 19.5312 7.5C18.4271 8.58333 17.5625 9.86458 16.9375 11.3438C16.3125 12.8229 16 14.375 16 16ZM56 52H64V56H56V64H52V56H44V52H52V44H56V52Z" fill="#CCCCCC"/>
</svg>
