<svg width="64" height="64" viewBox="0 0 64 64" fill="none" xmlns="http://www.w3.org/2000/svg">
<path fill-rule="evenodd" clip-rule="evenodd" d="M21.1733 34.8266C20.4243 34.0766 20.0035 33.06 20.0035 32C20.0035 30.94 20.4243 29.9233 21.1733 29.1733L36.256 14.0853C37.0064 13.3353 38.024 12.9141 39.0849 12.9143C39.6103 12.9144 40.1304 13.018 40.6157 13.2192C41.101 13.4203 41.5419 13.7151 41.9133 14.0866C42.2847 14.4582 42.5793 14.8993 42.7802 15.3847C42.9811 15.87 43.0845 16.3903 43.0843 16.9156C43.0842 17.4409 42.9806 17.9611 42.7795 18.4464C42.5783 18.9317 42.2835 19.3726 41.912 19.744L29.6587 32L41.9147 44.256C42.2969 44.6248 42.6018 45.066 42.8117 45.5539C43.0215 46.0419 43.1321 46.5667 43.137 47.0978C43.1418 47.6289 43.0409 48.1557 42.84 48.6474C42.6391 49.139 42.3423 49.5858 41.9669 49.9615C41.5915 50.3373 41.1451 50.6345 40.6536 50.8358C40.1621 51.0372 39.6354 51.1387 39.1043 51.1343C38.5732 51.1299 38.0482 51.0198 37.5601 50.8104C37.072 50.601 36.6305 50.2965 36.2613 49.9146L21.168 34.8266H21.1733Z" fill="#CCCCCC"/>
</svg>
