<svg width="64" height="64" viewBox="0 0 64 64" fill="none" xmlns="http://www.w3.org/2000/svg">
<path fill-rule="evenodd" clip-rule="evenodd" d="M42.8267 29.1734C43.5757 29.9234 43.9965 30.9401 43.9965 32.0001C43.9965 33.0601 43.5757 34.0768 42.8267 34.8268L27.744 49.9148C26.9936 50.6648 25.976 51.086 24.915 51.0858C23.8541 51.0855 22.8367 50.6638 22.0867 49.9134C21.3366 49.163 20.9154 48.1454 20.9156 47.0845C20.9159 46.0235 21.3376 45.0061 22.088 44.2561L34.344 32.0001L22.088 19.7441C21.359 18.99 20.9553 17.9798 20.9639 16.931C20.9726 15.8822 21.3928 14.8788 22.1341 14.1368C22.8753 13.3948 23.8784 12.9736 24.9272 12.964C25.976 12.9544 26.9866 13.3571 27.7413 14.0854L42.8293 29.1708L42.8267 29.1734Z" fill="#CCCCCC"/>
</svg>
