<svg width="64" height="64" viewBox="0 0 64 64" fill="none" xmlns="http://www.w3.org/2000/svg">
<path d="M22.4 45.3333L32 35.7333L41.6 45.3333L45.3333 41.5999L35.7333 31.9999L45.3333 22.3999L41.6 18.6666L32 28.2666L22.4 18.6666L18.6667 22.3999L28.2667 31.9999L18.6667 41.5999L22.4 45.3333ZM32 58.6666C28.3111 58.6666 24.8445 57.9661 21.6 56.5653C18.3556 55.1644 15.5333 53.2648 13.1333 50.8666C10.7333 48.4666 8.83379 45.6444 7.43468 42.3999C6.03557 39.1555 5.33512 35.6888 5.33334 31.9999C5.33334 28.311 6.03379 24.8444 7.43468 21.5999C8.83557 18.3555 10.7351 15.5333 13.1333 13.1333C15.5333 10.7333 18.3556 8.8337 21.6 7.43459C24.8445 6.03547 28.3111 5.33503 32 5.33325C35.6889 5.33325 39.1556 6.0337 42.4 7.43459C45.6445 8.83547 48.4667 10.735 50.8667 13.1333C53.2667 15.5333 55.1671 18.3555 56.568 21.5999C57.9689 24.8444 58.6685 28.311 58.6667 31.9999C58.6667 35.6888 57.9662 39.1555 56.5653 42.3999C55.1645 45.6444 53.2649 48.4666 50.8667 50.8666C48.4667 53.2666 45.6445 55.167 42.4 56.5679C39.1556 57.9688 35.6889 58.6684 32 58.6666ZM32 53.3333C37.9556 53.3333 43 51.2666 47.1333 47.1333C51.2667 42.9999 53.3333 37.9555 53.3333 31.9999C53.3333 26.0444 51.2667 20.9999 47.1333 16.8666C43 12.7333 37.9556 10.6666 32 10.6666C26.0445 10.6666 21 12.7333 16.8667 16.8666C12.7333 20.9999 10.6667 26.0444 10.6667 31.9999C10.6667 37.9555 12.7333 42.9999 16.8667 47.1333C21 51.2666 26.0445 53.3333 32 53.3333Z" fill="#827baf"/>
</svg>
