<svg width="40" height="40" viewBox="0 0 40 40" fill="none" xmlns="http://www.w3.org/2000/svg">
<path d="M6.66675 20.0003C6.66675 16.4641 8.07151 13.0727 10.572 10.5722C13.0725 8.07175 16.4639 6.66699 20.0001 6.66699C23.5363 6.66699 26.9277 8.07175 29.4282 10.5722C31.9287 13.0727 33.3334 16.4641 33.3334 20.0003V28.4837C33.3334 29.897 33.3334 30.6003 33.1234 31.1653C32.9564 31.613 32.6951 32.0196 32.3573 32.3575C32.0194 32.6954 31.6128 32.9567 31.1651 33.1237C30.6001 33.3337 29.8951 33.3337 28.4834 33.3337H20.0001C16.4639 33.3337 13.0725 31.9289 10.572 29.4284C8.07151 26.9279 6.66675 23.5365 6.66675 20.0003Z" stroke="#CCCCCC" stroke-width="2"/>
<path d="M15 18.334H25M20 25.0007H25" stroke="#CCCCCC" stroke-width="2" stroke-linecap="round" stroke-linejoin="round"/>
</svg>
