<svg width="64" height="64" viewBox="0 0 64 64" fill="none" xmlns="http://www.w3.org/2000/svg">
<path d="M31.9999 5.33301C46.7279 5.33301 58.6666 17.2717 58.6666 31.9997C58.6666 46.7277 46.7279 58.6663 31.9999 58.6663C17.2719 58.6663 5.33325 46.7277 5.33325 31.9997C5.33325 17.2717 17.2719 5.33301 31.9999 5.33301ZM31.9999 15.9997C31.2927 15.9997 30.6144 16.2806 30.1143 16.7807C29.6142 17.2808 29.3333 17.9591 29.3333 18.6663V31.9997C29.3334 32.7069 29.6145 33.385 30.1146 33.885L38.1146 41.885C38.6175 42.3708 39.2911 42.6395 39.9903 42.6335C40.6895 42.6274 41.3583 42.3469 41.8528 41.8525C42.3472 41.3581 42.6276 40.6893 42.6337 39.9901C42.6398 39.2909 42.371 38.6173 41.8853 38.1143L34.6666 30.8957V18.6663C34.6666 17.9591 34.3856 17.2808 33.8855 16.7807C33.3854 16.2806 32.7072 15.9997 31.9999 15.9997Z" fill="#CCCCCC"/>
</svg>
