<svg width="18" height="18" viewBox="0 0 18 18" fill="none" xmlns="http://www.w3.org/2000/svg">
<g id="ph:crown-simple">
<path id="Vector" d="M17.1451 5.35681C17.0182 5.24617 16.8612 5.17574 16.6942 5.15446C16.5272 5.13318 16.3577 5.162 16.2071 5.23728L12.6767 6.99509L9.7292 2.09923C9.65343 1.9736 9.54649 1.86968 9.41874 1.79754C9.29099 1.72541 9.14677 1.6875 9.00006 1.6875C8.85335 1.6875 8.70913 1.72541 8.58138 1.79754C8.45363 1.86968 8.34669 1.9736 8.27092 2.09923L5.32342 6.9972L1.79443 5.23939C1.6442 5.16478 1.47529 5.13621 1.30888 5.15725C1.14246 5.17829 0.985976 5.24801 0.859047 5.35767C0.732118 5.46732 0.640403 5.61203 0.595411 5.77361C0.55042 5.9352 0.554156 6.10648 0.606152 6.26595L3.20771 14.2366C3.23387 14.3167 3.27768 14.3898 3.3359 14.4507C3.39413 14.5116 3.46528 14.5586 3.54411 14.5883C3.62294 14.618 3.70744 14.6296 3.79136 14.6223C3.87527 14.615 3.95648 14.5889 4.02896 14.546C4.04654 14.5354 5.84443 13.4997 9.00006 13.4997C12.1557 13.4997 13.9536 14.5354 13.9697 14.5452C14.0423 14.5886 14.1236 14.615 14.2077 14.6226C14.2919 14.6302 14.3766 14.6187 14.4557 14.5891C14.5348 14.5594 14.6062 14.5123 14.6646 14.4513C14.723 14.3903 14.7669 14.3169 14.7931 14.2366L17.3947 6.26806C17.4482 6.10855 17.453 5.93672 17.4085 5.77445C17.3641 5.61218 17.2724 5.46681 17.1451 5.35681ZM13.9219 13.2768C13.0782 12.9189 11.3963 12.3747 9.00006 12.3747C6.60381 12.3747 4.92193 12.9189 4.07818 13.2768L1.87811 6.53877L5.04709 8.11869C5.23891 8.21328 5.45919 8.23262 5.66456 8.17288C5.86992 8.11315 6.04547 7.97867 6.15662 7.79595L9.00006 3.06955L11.8435 7.79455C11.9546 7.97709 12.1301 8.11144 12.3353 8.17117C12.5405 8.23089 12.7606 8.21167 12.9523 8.11728L16.122 6.53877L13.9219 13.2768Z" fill="#5749AB"/>
</g>
</svg>
