<svg width="40" height="40" viewBox="0 0 40 40" fill="none" xmlns="http://www.w3.org/2000/svg">
<g clip-path="url(#clip0_581_425)">
<g filter="url(#filter0_d_581_425)">
<path d="M17.9534 4.47974C18.5001 4.0544 19.1658 3.80995 19.8579 3.78038C20.55 3.75081 21.2341 3.93759 21.8151 4.31474L22.0467 4.48141L36.0201 15.3481C37.2217 16.2831 36.6367 18.1681 35.1884 18.3231L34.9951 18.3331H33.3334V31.6664C33.3337 32.5074 33.0161 33.3174 32.4442 33.934C31.8724 34.5506 31.0887 34.9283 30.2501 34.9914L30.0001 34.9997H10.0001C9.15941 34.9996 8.34984 34.6818 7.73355 34.11C7.11727 33.5382 6.7398 32.7547 6.67674 31.9164L6.66674 31.6664V18.3331H5.00508C3.48341 18.3331 2.78508 16.4864 3.83341 15.4747L3.98008 15.3481L17.9534 4.47974ZM20.0001 7.11141L9.37508 15.3747C9.75674 15.6831 10.0001 16.1547 10.0001 16.6831V31.6664H15.0001V23.3331C15.0001 22.007 15.5269 20.7352 16.4645 19.7975C17.4022 18.8599 18.674 18.3331 20.0001 18.3331C21.3262 18.3331 22.5979 18.8599 23.5356 19.7975C24.4733 20.7352 25.0001 22.007 25.0001 23.3331V31.6664H30.0001V16.6831C30.0001 16.1547 30.2434 15.6831 30.6251 15.3747L20.0001 7.11141ZM20.0001 21.6664C19.5581 21.6664 19.1341 21.842 18.8216 22.1546C18.509 22.4671 18.3334 22.891 18.3334 23.3331V31.6664H21.6667V23.3331C21.6667 22.891 21.4911 22.4671 21.1786 22.1546C20.866 21.842 20.4421 21.6664 20.0001 21.6664Z" fill="#CCCCCC"/>
</g>
</g>
<defs>
<filter id="filter0_d_581_425" x="-0.666992" y="3.77734" width="41.334" height="39.2227" filterUnits="userSpaceOnUse" color-interpolation-filters="sRGB">
<feFlood flood-opacity="0" result="BackgroundImageFix"/>
<feColorMatrix in="SourceAlpha" type="matrix" values="0 0 0 0 0 0 0 0 0 0 0 0 0 0 0 0 0 0 127 0" result="hardAlpha"/>
<feOffset dy="4"/>
<feGaussianBlur stdDeviation="2"/>
<feComposite in2="hardAlpha" operator="out"/>
<feColorMatrix type="matrix" values="0 0 0 0 0 0 0 0 0 0 0 0 0 0 0 0 0 0 0.25 0"/>
<feBlend mode="normal" in2="BackgroundImageFix" result="effect1_dropShadow_581_425"/>
<feBlend mode="normal" in="SourceGraphic" in2="effect1_dropShadow_581_425" result="shape"/>
</filter>
<clipPath id="clip0_581_425">
<rect width="40" height="40" fill="white"/>
</clipPath>
</defs>
</svg>
