<svg width="40" height="40" viewBox="0 0 40 40" fill="none" xmlns="http://www.w3.org/2000/svg">
<path d="M18.3333 18.3C18.3333 17.8579 18.5088 17.434 18.8214 17.1214C19.134 16.8089 19.5579 16.6333 19.9999 16.6333C20.4419 16.6333 20.8659 16.8089 21.1784 17.1214C21.491 17.434 21.6666 17.8579 21.6666 18.3V28.3C21.6666 28.742 21.491 29.1659 21.1784 29.4785C20.8659 29.791 20.4419 29.9666 19.9999 29.9666C19.5579 29.9666 19.134 29.791 18.8214 29.4785C18.5088 29.1659 18.3333 28.742 18.3333 28.3V18.3ZM19.9999 10.085C19.5579 10.085 19.134 10.2606 18.8214 10.5731C18.5088 10.8857 18.3333 11.3096 18.3333 11.7516C18.3333 12.1937 18.5088 12.6176 18.8214 12.9301C19.134 13.2427 19.5579 13.4183 19.9999 13.4183C20.4419 13.4183 20.8659 13.2427 21.1784 12.9301C21.491 12.6176 21.6666 12.1937 21.6666 11.7516C21.6666 11.3096 21.491 10.8857 21.1784 10.5731C20.8659 10.2606 20.4419 10.085 19.9999 10.085Z" fill="#CCCCCC"/>
<path fill-rule="evenodd" clip-rule="evenodd" d="M19.9999 3.3335C10.7949 3.3335 3.33325 10.7952 3.33325 20.0002C3.33325 29.2052 10.7949 36.6668 19.9999 36.6668C29.2049 36.6668 36.6666 29.2052 36.6666 20.0002C36.6666 10.7952 29.2049 3.3335 19.9999 3.3335ZM6.66659 20.0002C6.66659 23.5364 8.07134 26.9278 10.5718 29.4283C13.0723 31.9287 16.4637 33.3335 19.9999 33.3335C23.5361 33.3335 26.9275 31.9287 29.428 29.4283C31.9285 26.9278 33.3333 23.5364 33.3333 20.0002C33.3333 16.4639 31.9285 13.0726 29.428 10.5721C26.9275 8.07159 23.5361 6.66683 19.9999 6.66683C16.4637 6.66683 13.0723 8.07159 10.5718 10.5721C8.07134 13.0726 6.66659 16.4639 6.66659 20.0002Z" fill="#CCCCCC"/>
</svg>
