<svg width="1217" height="112" viewBox="0 0 1217 112" fill="none" xmlns="http://www.w3.org/2000/svg">
<g filter="url(#filter0_d_67_25)">
<path d="M31.85 72.35C31.7 72.65 31.55 72.95 31.4 73.1C31.4 73.55 31.4 73.85 31.55 74C30.8 74.15 30.35 74 29.9 73.55L27.95 75.5C29.75 74.9 31.55 74.3 33.5 73.55H51.5L60.5 76.25C63.5 77.15 66.8 77.9 69.05 78.8C70.55 78.35 72.95 76.85 75.05 75.8L81.35 72.35L83 74L71.75 85.25H62.6L49.85 79.85H18.2L32 66.05L32.15 65.75L15.95 80.75L50.3 82.1V85.55H4.4L39.8 50.15L41.6 46.25L50.3 39.65L77.75 12.2L87.8 11L85.25 18.2L33.5 70.1L32.45 71.45L32.15 71.75C32 71.9 31.85 72.05 31.85 72.05V72.35ZM125.264 34.1L143.864 18.35V57.2L134.564 90.95H132.164V68.9L133.064 66.5H131.864V44.45L102.164 69.65H107.864L108.014 67.25H119.114L129.164 76.55V78.95H122.564L121.814 78.05V79.25H94.8137V79.85H91.0637L78.0137 90.95L75.0137 87.5L71.2637 87.65L74.5637 80.45L125.864 36.8C125.714 36.05 125.414 35.15 125.264 34.1ZM115.664 70.7V73.55H109.214L120.014 75.5L116.564 70.7H115.664ZM140.414 48.35V45.65H137.564V32L131.414 37.25L137.114 32.9L135.614 60.2L140.414 48.35ZM286.087 26.75L285.487 27.95L283.087 31.85L281.587 31.7L282.637 33.65L281.437 35.75H259.837L252.187 44.45L251.887 41.45L248.587 45.2L249.937 48.5L233.287 67.25L230.137 66.5L225.937 71.3L226.987 73.85L218.587 83.45L214.837 87.5L205.687 85.25L204.637 82.25L206.287 80.3L235.087 47.6L239.437 44L246.787 35.75L242.587 35.15H225.487V35H221.737L228.487 26.75H232.537L236.587 21.05L238.987 19.85L238.537 19.4L240.787 16.25L232.237 13.4L215.587 34.25C217.087 35.3 218.437 36.35 219.487 37.25C217.687 38.9 216.187 40.25 214.687 41.45C213.937 42.05 213.187 42.65 212.587 43.1L210.637 44.75L202.387 51.5L200.587 49.85L199.687 49.25L201.787 43.4L206.137 37.85L205.837 37.7L203.287 35.3L202.687 36.5L195.937 33.2L175.987 55.85L217.837 59.75L190.987 84.95L177.787 84.8V85.4L139.087 84.8L139.237 80.3L134.887 77.9L145.237 74.75L187.237 75.35L195.637 67.4L172.537 65.15C171.787 65.9 170.887 66.65 169.987 67.4L151.387 65.6L190.837 20.75L192.937 18.65L198.487 22.1L201.037 23.75L202.387 24.65L207.787 28.7L210.337 30.65L211.387 31.4L227.587 10.85L226.837 9.65L230.287 5.29999L251.587 12.35L248.137 17.15C246.787 18.65 245.587 19.85 244.537 21.05L242.437 22.7L238.537 26L237.487 26.9H239.737L239.887 26.75H286.087ZM194.887 28.25L196.537 29.3C196.087 28.7 195.487 28.1 194.737 27.5C193.987 27.8 193.087 28.25 192.187 28.85L189.037 30.8L182.887 34.85L180.337 37.85L182.437 39.8L164.287 60.5L167.737 60.8L164.587 60.35L180.037 44L191.887 31.4L194.887 28.25ZM238.537 12.5L241.837 13.85L242.287 13.25L231.337 9.49999V9.65L238.537 12.5ZM226.687 61.7L236.887 50.15L235.987 49.25L225.787 60.8L226.687 61.7ZM250.087 35.75H249.937H250.087ZM374.142 13.25H375.942L355.842 33.35L351.792 30.95C350.592 31.1 349.542 31.1 348.642 30.95C348.792 29.3 348.342 27.95 347.592 27.35L351.342 23.45H334.092L333.942 25.85H312.042L311.292 25.55L310.092 28.25L289.692 48.65H307.692L307.842 46.25H318.792L328.542 55.55V57.95H322.242L321.492 57.05V58.25H294.942V58.85H286.992V54.35L286.242 52.1L263.892 74.45H264.942C266.592 73.7 268.242 72.8 269.742 72.05L301.392 72.05L340.692 81.35V83.75H315.042L312.342 82.85V84.05L240.642 84.05L284.592 40.25L284.142 39.8L302.592 21.35L292.392 16.55V14.15H305.142L306.642 15.05V13.85L372.942 13.85L374.142 13.25ZM288.042 78.35L262.692 78.35L304.842 80.15L291.192 75.5H288.042V78.35ZM315.342 49.7V52.55H309.042L319.692 54.35L316.242 49.7H315.342ZM318.792 22.4V19.55H331.542L310.392 17.75L313.542 19.85H313.692V20L317.142 22.4H318.792ZM385.627 33.35L369.877 49.1L370.027 50L387.277 34.85L389.827 37.4L371.377 55.7V55.85L373.777 55.4L377.527 71.3L371.677 87.8L369.277 88.4L367.177 78.95L367.927 77.75L366.727 78.05L363.427 63.8L360.277 66.8L359.527 69.5L353.977 73.1L337.777 89.45L329.977 88.25L330.427 83L360.877 52.7L357.727 39.35H357.127L354.577 27.95L358.927 26.9L360.877 25.1L364.927 27.5L368.227 41.9L381.727 28.25L401.827 21.35L403.627 23.15L394.777 31.85L385.627 33.35ZM370.177 67.85L368.077 59L369.877 74.45L373.327 68.45L373.027 67.25L370.177 67.85ZM462.806 19.7L479.606 27.5V29.9H466.406L464.906 29V30.2H451.106L451.856 30.95L408.056 74.75L408.506 75.2L395.606 88.25L392.306 84.95L389.306 84.8L390.356 78.95L422.456 46.85L420.956 44.9L435.656 30.2H410.006V30.8L393.806 30.8V26.3L392.006 23.9L396.356 20.6L436.556 20.6L436.856 18.2H459.356H459.506L461.606 17.45L463.406 19.1L462.806 19.7ZM427.406 47.45L446.006 31.4L437.006 33.65L435.656 35L437.756 37.1L427.406 47.45ZM444.956 24.5H439.256L443.906 24.8L444.956 24.5ZM456.506 26L461.156 26.3L458.156 24.35L456.506 26ZM561.932 28.7L579.482 13.7V51.2L570.182 83.15H567.782V62.3L568.682 60.05H567.482V39.8L540.332 62.75H545.132L545.282 60.35H555.782L565.232 69.65V72.2H559.082L558.332 71.15V72.5H532.832V72.95H529.232L517.082 83.3L514.082 79.85L510.482 80L513.482 73.1L562.382 31.55C562.232 30.65 562.082 29.6 561.932 28.7ZM552.482 63.8V66.65H546.332L556.532 68.6L553.232 63.8H552.482ZM576.032 42.95V39.95L573.182 40.25V27.35L567.332 32.3L572.732 28.25L571.232 54.05L576.032 42.95ZM571.532 86.75L571.682 88.7L556.982 89V89.75L564.932 89.6V90.95L558.782 91.1L556.682 93.35L544.982 93.5L542.582 96.2L504.932 96.8L502.682 94.55H497.432L494.282 87.65L491.582 86.75L483.782 69.35L480.482 62.3L469.232 62.45L457.382 74.3L457.832 74.6L447.182 85.25L443.882 82.1L441.182 81.65L441.632 76.4L468.032 50L466.382 48.2L481.232 33.35L486.332 31.7L486.632 29.3L484.232 26.75L490.682 24.05L533.732 29L525.182 47.15L518.882 49.4L519.332 51.8L490.682 61.85L502.082 87.2L528.782 86.75L537.182 87.35L571.532 86.75ZM497.732 55.7L496.832 53L513.932 47L487.232 54.5L487.832 55.55L495.482 56.45L497.732 55.7ZM508.682 35.75L508.532 36.35L496.232 35L494.132 37.1L492.632 37.25L493.532 38.15L478.382 53.3L518.282 39.5L519.332 37.1L508.682 35.75ZM479.132 40.4L481.082 42.35L472.532 51.05L488.132 38L480.182 39.2L479.132 40.4ZM477.332 54.35L478.682 54.5L478.232 53.3L477.332 54.35ZM504.632 89.75L527.732 89.3V88.1L504.632 88.55V89.75ZM674.018 29.15L655.718 48.8L655.868 49.25L639.818 65.9L637.568 65.6L633.518 69.8L633.818 71.9L629.168 76.7L620.318 86.3H614.018L614.168 85.4L614.918 84.65L613.568 85.25L611.918 81.65L613.718 77.3L628.418 41L623.018 39.2L613.868 49.4L606.368 56.45L578.768 87.05L576.968 85.4L588.668 72.5L587.918 71.75L584.318 75.65L576.218 86.3H568.118L594.368 55.7L594.218 53.75L619.568 25.7L635.318 31.1C636.518 32.45 637.268 33.65 637.418 34.85L639.968 35.6L635.168 47.6L636.668 50.6L631.118 64.4L644.618 50.3L647.468 47.9L666.218 28.4L674.018 29.15ZM622.568 37.25L629.468 39.5L630.368 38.45L622.118 35.75L612.368 46.55L613.418 47.45L622.568 37.25ZM635.768 62.15L645.668 51.95L645.068 51.35L635.168 61.55L635.768 62.15ZM636.987 87.05L637.137 82.55L632.787 80.15L643.137 77L685.138 77.6L693.688 69.65L670.438 67.4C669.688 68.15 668.938 68.9 668.038 69.65L649.438 68L688.738 23L690.838 21.05L696.538 24.35L698.938 26L700.288 27.05L705.688 30.95L708.388 32.9L709.738 33.95L711.538 35.15C713.938 36.8 715.888 38.3 717.538 39.5C715.738 41.15 714.088 42.5 712.588 43.7C711.838 44.3 711.238 44.9 710.488 45.5L708.538 47L700.438 53.75L698.488 52.1L707.338 41.6L703.738 39.95L701.188 37.7L700.588 38.75L693.838 35.45L674.038 58.1L715.738 62.15L688.888 87.2L675.688 87.05V87.65L636.987 87.05ZM662.338 62.75L665.788 63.2L662.488 62.75L678.088 46.25L689.788 33.8L692.788 30.65L694.588 31.55C693.988 30.95 693.388 30.35 692.638 29.75C691.888 30.05 691.138 30.5 690.088 31.1L687.088 33.2L680.938 37.1L678.238 40.1L680.488 42.05L662.338 62.75ZM767.845 34.25L774.145 42.65L772.795 45.35L760.645 39.05C760.795 38 760.645 36.8 759.895 35.45C759.145 34.4 757.795 34.1 755.845 34.4L731.395 59.3L732.295 60.35L757.645 36.2L760.495 39.35L728.995 70.85C728.545 70.7 728.095 70.85 727.795 71.15L727.945 71.3L728.095 71.75L729.295 74.45C729.895 76.1 730.045 75.5 730.195 75.5C730.195 75.5 730.045 75.5 730.045 75.65V75.8C729.895 76.55 729.745 77.3 729.895 78.05L738.445 77.9L739.945 75.8L748.945 75.35L754.645 82.7L749.695 86.9L721.195 87.05L716.245 67.25L726.745 56.9L728.695 52.55L732.745 48.35L731.395 52.1L735.295 48.35L733.345 46.1L752.245 27.2C754.345 25.85 756.445 24.8 758.095 24.05C760.645 26.15 762.895 28.25 764.545 29.9L765.145 30.5L765.445 31.1L766.195 32.15L767.845 34.25ZM736.645 82.7V83.45H744.595V84.05H748.195V81.65H744.595V82.55L736.645 82.7ZM801.573 56.9L780.723 56.9V55.85L771.423 65.3L771.723 66.35C772.323 66.2 773.073 66.2 773.673 66.05L775.173 71.6H788.373L793.323 73.1L795.873 74C796.923 74.15 797.073 74.45 797.673 74.75C798.123 74.75 798.423 74.6 799.023 74.45L800.673 73.85L811.023 70.25L812.223 71.9L799.773 81.05H796.773L794.973 80.3V81.2L767.823 81.2L762.873 62.9L784.773 41L784.473 40.7L793.173 32L783.273 29.15V27.2H797.823L798.123 27.05L798.273 27.2H800.373L802.173 27.95V27.05H844.023L814.623 56.45H801.573V56.9ZM780.123 76.7H771.423L769.623 70.25L771.123 77L790.473 78.2L782.073 74.3H780.123V76.7ZM833.223 31.55L807.123 30.05L816.273 33.95H818.373V31.55H832.923L831.423 33.2L833.223 31.55ZM809.373 36.65L801.873 34.55L801.723 35L787.923 48.8H811.473L823.923 36.2C822.873 36.35 821.823 36.5 820.773 36.65H809.373ZM910.736 29.15L892.436 48.8L892.586 49.25L876.536 65.9L874.286 65.6L870.236 69.8L870.536 71.9L865.886 76.7L857.036 86.3H850.736L850.886 85.4L851.636 84.65L850.286 85.25L848.636 81.65L850.436 77.3L865.136 41L859.736 39.2L850.586 49.4L843.086 56.45L815.486 87.05L813.686 85.4L825.386 72.5L824.636 71.75L821.036 75.65L812.936 86.3H804.836L831.086 55.7L830.936 53.75L856.286 25.7L872.036 31.1C873.236 32.45 873.986 33.65 874.136 34.85L876.686 35.6L871.886 47.6L873.386 50.6L867.836 64.4L881.336 50.3L884.186 47.9L902.936 28.4L910.736 29.15ZM859.286 37.25L866.186 39.5L867.086 38.45L858.836 35.75L849.086 46.55L850.136 47.45L859.286 37.25ZM872.486 62.15L882.386 51.95L881.786 51.35L871.886 61.55L872.486 62.15ZM999.518 0.649999L1012.72 0.349994L1003.42 9.8L1001.32 11.9L999.218 12.65L1000.12 13.55L947.468 66.8L947.768 67.1L932.168 82.85L929.018 79.7L925.568 79.85L927.368 73.25L957.668 42.65L924.518 43.25L909.668 57.2C907.868 59.45 905.018 62.75 904.868 63.5C904.418 63.2 904.268 62.75 904.268 62.3L902.618 63.8C903.818 63.8 904.868 63.95 906.068 63.95L921.518 77.75L934.718 101.9L933.068 103.7L920.468 92.45L916.418 81.65L896.618 64.1L908.168 53.3L908.318 53L895.268 64.1L915.068 83.45L912.668 86.15L888.068 64.25L914.018 39.95L915.518 36.65L916.268 36.2C916.418 36.05 916.718 35.9 916.868 35.75L917.618 35.15L920.318 32.9L925.268 33.35L927.818 33.65L959.168 33.05L963.368 36.95L966.068 34.25L964.568 32.3L986.168 10.55L994.418 6.35L984.368 3.19999V0.799997L999.518 0.649999ZM971.468 34.4L993.668 14.6L983.468 18.05L981.968 19.7L983.918 21.65L971.468 34.4ZM905.018 63.65C904.868 63.65 904.718 63.65 904.868 63.5C904.868 63.5 904.868 63.5 905.018 63.65ZM998.594 56.9H977.744V55.85L968.444 65.3L968.744 66.35C969.344 66.2 970.094 66.2 970.694 66.05L972.194 71.6H985.394L990.344 73.1L992.894 74C993.944 74.15 994.094 74.45 994.694 74.75C995.144 74.75 995.444 74.6 996.044 74.45L997.694 73.85L1008.04 70.25L1009.24 71.9L996.794 81.05H993.794L991.994 80.3V81.2H964.844L959.894 62.9L981.794 41L981.494 40.7L990.194 32L980.294 29.15V27.2H994.844L995.144 27.05L995.294 27.2H997.394L999.194 27.95V27.05H1041.04L1011.64 56.45H998.594V56.9ZM977.144 76.7H968.444L966.644 70.25L968.144 77L987.494 78.2L979.094 74.3H977.144V76.7ZM1030.24 31.55L1004.14 30.05L1013.29 33.95H1015.39V31.55H1029.94L1028.44 33.2L1030.24 31.55ZM1006.39 36.65L998.894 34.55L998.744 35L984.944 48.8H1008.49L1020.94 36.2C1019.89 36.35 1018.84 36.5 1017.79 36.65H1006.39ZM1107.76 29.15L1089.46 48.8L1089.61 49.25L1073.56 65.9L1071.31 65.6L1067.26 69.8L1067.56 71.9L1062.91 76.7L1054.06 86.3H1047.76L1047.91 85.4L1048.66 84.65L1047.31 85.25L1045.66 81.65L1047.46 77.3L1062.16 41L1056.76 39.2L1047.61 49.4L1040.11 56.45L1012.51 87.05L1010.71 85.4L1022.41 72.5L1021.66 71.75L1018.06 75.65L1009.96 86.3H1001.86L1028.11 55.7L1027.96 53.75L1053.31 25.7L1069.06 31.1C1070.26 32.45 1071.01 33.65 1071.16 34.85L1073.71 35.6L1068.91 47.6L1070.41 50.6L1064.86 64.4L1078.36 50.3L1081.21 47.9L1099.96 28.4L1107.76 29.15ZM1056.31 37.25L1063.21 39.5L1064.11 38.45L1055.86 35.75L1046.11 46.55L1047.16 47.45L1056.31 37.25ZM1069.51 62.15L1079.41 51.95L1078.81 51.35L1068.91 61.55L1069.51 62.15ZM1136.69 34.25L1142.99 42.65L1141.64 45.35L1129.49 39.05C1129.64 38 1129.49 36.8 1128.74 35.45C1127.99 34.4 1126.64 34.1 1124.69 34.4L1100.24 59.3L1101.14 60.35L1126.49 36.2L1129.34 39.35L1097.84 70.85C1097.39 70.7 1096.94 70.85 1096.64 71.15L1096.79 71.3L1096.94 71.75L1098.14 74.45C1098.74 76.1 1098.89 75.5 1099.04 75.5C1099.04 75.5 1098.89 75.5 1098.89 75.65V75.8C1098.74 76.55 1098.59 77.3 1098.74 78.05L1107.29 77.9L1108.79 75.8L1117.79 75.35L1123.49 82.7L1118.54 86.9L1090.04 87.05L1085.09 67.25L1095.59 56.9L1097.54 52.55L1101.59 48.35L1100.24 52.1L1104.14 48.35L1102.19 46.1L1121.09 27.2C1123.19 25.85 1125.29 24.8 1126.94 24.05C1129.49 26.15 1131.74 28.25 1133.39 29.9L1133.99 30.5L1134.29 31.1L1135.04 32.15L1136.69 34.25ZM1105.49 82.7V83.45H1113.44V84.05H1117.04V81.65H1113.44V82.55L1105.49 82.7ZM1170.42 56.9H1149.57V55.85L1140.27 65.3L1140.57 66.35C1141.17 66.2 1141.92 66.2 1142.52 66.05L1144.02 71.6H1157.22L1162.17 73.1L1164.72 74C1165.77 74.15 1165.92 74.45 1166.52 74.75C1166.97 74.75 1167.27 74.6 1167.87 74.45L1169.52 73.85L1179.87 70.25L1181.07 71.9L1168.62 81.05H1165.62L1163.82 80.3V81.2H1136.67L1131.72 62.9L1153.62 41L1153.32 40.7L1162.02 32L1152.12 29.15V27.2H1166.67L1166.97 27.05L1167.12 27.2H1169.22L1171.02 27.95V27.05L1212.87 27.05L1183.47 56.45H1170.42V56.9ZM1148.97 76.7H1140.27L1138.47 70.25L1139.97 77L1159.32 78.2L1150.92 74.3H1148.97V76.7ZM1202.07 31.55L1175.97 30.05L1185.12 33.95H1187.22V31.55H1201.77L1200.27 33.2L1202.07 31.55ZM1178.22 36.65L1170.72 34.55L1170.57 35L1156.77 48.8L1180.32 48.8L1192.77 36.2C1191.72 36.35 1190.67 36.5 1189.62 36.65H1178.22Z" fill="#FFF61C"/>
</g>
<defs>
<filter id="filter0_d_67_25" x="0.400391" y="0.350098" width="1216.47" height="111.35" filterUnits="userSpaceOnUse" color-interpolation-filters="sRGB">
<feFlood flood-opacity="0" result="BackgroundImageFix"/>
<feColorMatrix in="SourceAlpha" type="matrix" values="0 0 0 0 0 0 0 0 0 0 0 0 0 0 0 0 0 0 127 0" result="hardAlpha"/>
<feOffset dy="4"/>
<feGaussianBlur stdDeviation="2"/>
<feComposite in2="hardAlpha" operator="out"/>
<feColorMatrix type="matrix" values="0 0 0 0 0 0 0 0 0 0 0 0 0 0 0 0 0 0 0.25 0"/>
<feBlend mode="normal" in2="BackgroundImageFix" result="effect1_dropShadow_67_25"/>
<feBlend mode="normal" in="SourceGraphic" in2="effect1_dropShadow_67_25" result="shape"/>
</filter>
</defs>
</svg>
