<svg width="268" height="86" viewBox="0 0 268 86" fill="none" xmlns="http://www.w3.org/2000/svg">
<g filter="url(#filter0_d_72_5)">
<path d="M31.85 61.35C31.7 61.65 31.55 61.95 31.4 62.1C31.4 62.55 31.4 62.85 31.55 63C30.8 63.15 30.35 63 29.9 62.55L27.95 64.5C29.75 63.9 31.55 63.3 33.5 62.55H51.5L60.5 65.25C63.5 66.15 66.8 66.9 69.05 67.8C70.55 67.35 72.95 65.85 75.05 64.8L81.35 61.35L83 63L71.75 74.25H62.6L49.85 68.85H18.2L32 55.05L32.15 54.75L15.95 69.75L50.3 71.1V74.55H4.4L39.8 39.15L41.6 35.25L50.3 28.65L77.75 1.2L87.8 0L85.25 7.2L33.5 59.1L32.45 60.45L32.15 60.75C32 60.9 31.85 61.05 31.85 61.05V61.35ZM206.271 2.25H208.071L187.971 22.35L183.921 19.95C182.721 20.1 181.671 20.1 180.771 19.95C180.921 18.3 180.471 16.95 179.721 16.35L183.471 12.45H166.221L166.071 14.85L144.171 14.85L143.421 14.55L142.221 17.25L121.821 37.65H139.821L139.971 35.25H150.921L160.671 44.55V46.95H154.371L153.621 46.05V47.25H127.071V47.85H119.121V43.35L118.371 41.1L96.0207 63.45H97.0707C98.7207 62.7 100.371 61.8 101.871 61.05H133.521L172.821 70.35V72.75H147.171L144.471 71.85V73.05H72.7707L116.721 29.25L116.271 28.8L134.721 10.35L124.521 5.55V3.15H137.271L138.771 4.05V2.84999H205.071L206.271 2.25ZM120.171 67.35H94.8207L136.971 69.15L123.321 64.5H120.171V67.35ZM147.471 38.7V41.55H141.171L151.821 43.35L148.371 38.7H147.471ZM150.921 11.4V8.55L163.671 8.55L142.521 6.75L145.671 8.85H145.821V9L149.271 11.4H150.921ZM246.448 8.7L263.248 16.5V18.9H250.048L248.548 18V19.2H234.748L235.498 19.95L191.698 63.75L192.148 64.2L179.248 77.25L175.948 73.95L172.948 73.8L173.998 67.95L206.098 35.85L204.598 33.9L219.298 19.2H193.648V19.8H177.448V15.3L175.648 12.9L179.998 9.6H220.198L220.498 7.2H242.998H243.148L245.248 6.45L247.048 8.1L246.448 8.7ZM211.048 36.45L229.648 20.4L220.648 22.65L219.298 24L221.398 26.1L211.048 36.45ZM228.598 13.5H222.898L227.548 13.8L228.598 13.5ZM240.148 15L244.798 15.3L241.798 13.35L240.148 15Z" fill="#FFF61C"/>
</g>
<defs>
<filter id="filter0_d_72_5" x="0.400391" y="0" width="266.848" height="85.25" filterUnits="userSpaceOnUse" color-interpolation-filters="sRGB">
<feFlood flood-opacity="0" result="BackgroundImageFix"/>
<feColorMatrix in="SourceAlpha" type="matrix" values="0 0 0 0 0 0 0 0 0 0 0 0 0 0 0 0 0 0 127 0" result="hardAlpha"/>
<feOffset dy="4"/>
<feGaussianBlur stdDeviation="2"/>
<feComposite in2="hardAlpha" operator="out"/>
<feColorMatrix type="matrix" values="0 0 0 0 0 0 0 0 0 0 0 0 0 0 0 0 0 0 0.25 0"/>
<feBlend mode="normal" in2="BackgroundImageFix" result="effect1_dropShadow_72_5"/>
<feBlend mode="normal" in="SourceGraphic" in2="effect1_dropShadow_72_5" result="shape"/>
</filter>
</defs>
</svg>
