<svg width="60" height="60" viewBox="0 0 60 60" fill="none" xmlns="http://www.w3.org/2000/svg">
<g clip-path="url(#clip0_240_1115)">
<path d="M45 33.75C40.3031 33.75 36.225 37.125 34.2563 42.0469L12.4594 14.8008L12.5156 14.7305L18.15 7.6875C26.3531 -2.56641 39.6469 -2.56641 47.85 7.6875C54.1406 15.5508 55.6031 27.1758 52.2375 36.7852C50.2313 34.875 47.7188 33.75 45 33.75ZM10.6219 17.8008L33.1969 46.0195C33.0656 46.8984 33 47.8125 33 48.75C33 51.4688 33.5813 54.0117 34.5844 56.2148C34.3031 56.2383 34.0125 56.25 33.7219 56.25H33.4688C30.2906 56.25 27.2344 54.668 24.9844 51.8555L24.0656 50.707C22.8375 49.1719 20.8219 49.2539 19.6781 50.9062L14.2688 58.7109C13.725 59.4961 12.9375 59.9649 12.1125 60C11.2875 60.0352 10.4719 59.6367 9.88126 58.8984L6.88126 55.1484C6.29063 54.4102 5.97188 53.4023 6.00001 52.3594C6.02813 51.3164 6.40313 50.3438 7.03126 49.6641L13.275 42.9023C14.5875 41.4727 14.6625 38.9531 13.4344 37.418L12.5156 36.2695C10.2656 33.457 9.00001 29.6367 9.00001 25.6641V25.3477C9.00001 22.6758 9.57188 20.0859 10.6219 17.8125V17.8008ZM45 37.5C47.387 37.5 49.6761 38.6853 51.364 40.795C53.0518 42.9048 54 45.7663 54 48.75C54 51.7337 53.0518 54.5952 51.364 56.705C49.6761 58.8147 47.387 60 45 60C42.6131 60 40.3239 58.8147 38.636 56.705C36.9482 54.5952 36 51.7337 36 48.75C36 45.7663 36.9482 42.9048 38.636 40.795C40.3239 38.6853 42.6131 37.5 45 37.5Z" fill="#827BAF"/>
</g>
<defs>
<clipPath id="clip0_240_1115">
<rect width="60" height="60" fill="white"/>
</clipPath>
</defs>
</svg>
