<svg xmlns="http://www.w3.org/2000/svg" width="60" height="48" viewBox="0 0 60 48" fill="none">
  <g clip-path="url(#clip0_240_2197)">
    <path d="M45 26.9999C40.3031 26.9999 36.225 29.6999 34.2563 33.6374L12.4594 11.8405L12.5156 11.7843L18.15 6.1499C26.3531 -2.05322 39.6469 -2.05322 47.85 6.1499C54.1406 12.4405 55.6031 21.7405 52.2375 29.428C50.2313 27.8999 47.7188 26.9999 45 26.9999ZM10.6219 14.2405L33.1969 36.8155C33.0656 37.5187 33 38.2499 33 38.9999C33 41.1749 33.5813 43.2093 34.5844 44.9718C34.3031 44.9905 34.0125 44.9999 33.7219 44.9999H33.4688C30.2906 44.9999 27.2344 43.7343 24.9844 41.4843L24.0656 40.5655C22.8375 39.3374 20.8219 39.403 19.6781 40.7249L14.2688 46.9687C13.725 47.5968 12.9375 47.9718 12.1125 47.9999C11.2875 48.028 10.4719 47.7093 9.88126 47.1187L6.88126 44.1187C6.29063 43.528 5.97188 42.7218 6.00001 41.8874C6.02813 41.053 6.40313 40.2749 7.03126 39.7312L13.275 34.3218C14.5875 33.178 14.6625 31.1624 13.4344 29.9343L12.5156 29.0155C10.2656 26.7655 9.00001 23.7093 9.00001 20.5312V20.278C9.00001 18.1405 9.57188 16.0687 10.6219 14.2499V14.2405ZM45 29.9999C47.387 29.9999 49.6761 30.9481 51.364 32.6359C53.0518 34.3238 54 36.613 54 38.9999C54 41.3868 53.0518 43.676 51.364 45.3639C49.6761 47.0517 47.387 47.9999 45 47.9999C42.6131 47.9999 40.3239 47.0517 38.636 45.3639C36.9482 43.676 36 41.3868 36 38.9999C36 36.613 36.9482 34.3238 38.636 32.6359C40.3239 30.9481 42.6131 29.9999 45 29.9999Z" fill="#5849B6"/>
  </g>
  <defs>
    <clipPath id="clip0_240_2197">
      <rect width="60" height="48" fill="white"/>
    </clipPath>
  </defs>
</svg>