<svg width="652" height="120" viewBox="0 0 652 120" fill="none" xmlns="http://www.w3.org/2000/svg">
<g filter="url(#filter0_d_67_24)">
<path d="M146.9 12.75H148.4L98.15 57.6H46.1L73.25 33.3L72.95 32.85L96.5 11.7L99.65 15L103.85 14.4L99.65 22.5L71.3 48H91.4L92 45.6H93.65L116.9 24.75C117.95 24.9 120.05 24 123.2 22.35C124.25 21.15 122.75 20.1 118.55 18.9C117.5 18.6 116.15 18.3 114.95 18L111.35 17.1L104 15.45V13.05H141.05C142.1 13.35 143 13.65 143.75 13.95L146.9 12.75ZM121.25 31.2L131.6 22.5C128 24.6 125 26.25 122.6 27.3C122 27.6 121.55 27.9 120.95 28.05C120.5 28.2 120.05 28.35 119.45 28.65L116 30L113.6 32.25L115.55 34.35L96.5 51.45L113 37.95L121.25 31.2ZM86.9 66L92.3 63L93.95 64.65L84.2 74.7H73.55L61.1 69.3H18.2L23.6 63.9V63.75L17 69.75L61.4 71.4V75H4.4L30.65 48.6L32.45 44.85L40.85 38.4L67.7 11.55L77.6 10.35L75.2 17.55L29.15 63.75C29 64.2 29 64.5 29.15 64.8C30.35 64.5 31.4 64.2 32 63.9C31.25 64.5 30.05 64.95 28.55 65.4H31.25C32 64.65 32.75 63.75 33.35 63L62.6 62.85L72.35 65.85C75.5 66.75 78.95 67.65 81.65 68.7C83 68.1 85.1 66.9 86.9 66ZM195.834 38.7L161.934 72.6L146.634 91.2L146.784 91.35L126.984 111.3L117.384 100.2L107.784 74.85L109.584 73.35L120.534 85.8C121.284 89.55 122.034 93.3 123.084 97.05L127.284 102L153.084 76.05V75.75L139.734 88.05L132.984 94.2L129.984 96.9L127.434 99.3L124.284 95.25L126.684 92.55L127.584 93.6L156.234 64.8L145.884 70.95L121.134 64.2L118.734 63.75C118.884 63.6 118.884 63.6 119.034 63.45L122.634 55.65L136.584 43.05L156.384 23.55C159.534 21.45 162.084 19.8 164.484 18.3C166.884 21.45 168.984 24.3 170.634 26.7L171.084 27.15C171.084 27.3 171.234 27.45 171.234 27.6L171.684 28.2L172.434 29.55L173.934 32.25L178.434 40.2L183.534 37.05H183.834L188.334 32.4H197.334L195.834 38.7ZM144.534 58.95L153.684 55.2L175.134 42.15L161.184 29.25L145.734 44.7L161.034 31.05L163.434 33.6L137.784 58.8L144.384 60.6V60.45C144.534 60.15 144.534 60 144.534 59.7C144.384 59.55 144.384 59.55 144.384 59.4V59.25C144.234 59.25 144.384 59.25 144.384 59.1L144.534 58.95ZM211.135 26.85L229.435 21.75L231.235 23.4L223.585 31.05L222.085 31.2L222.985 32.1L191.335 63.75L191.785 64.05L182.335 73.5L179.185 70.35L176.485 69.75L176.635 64.8L199.735 41.7L198.235 39.75L211.135 26.85ZM204.085 42.75L218.035 31.65L210.535 32.25L209.635 33.3L211.585 35.25L204.085 42.75ZM239.935 15.75L237.985 14.25L236.785 15.45L238.135 17.1L235.735 19.5L234.835 20.55L228.985 16.5L227.635 14.55L228.085 14.1L235.885 6L237.385 5.4L241.435 1.2L242.785 2.55L241.135 4.35L241.735 4.95L242.635 4.05L243.535 4.95L242.935 5.7L244.285 7.5L242.785 9L244.435 11.1L239.935 15.75ZM234.835 10.65L237.535 7.95L236.785 7.05L233.935 9.9L234.835 10.65ZM306.418 18.15L288.118 37.8L288.268 38.25L272.218 54.9L269.968 54.6L265.918 58.8L266.218 60.9L261.568 65.7L252.718 75.3H246.418L246.568 74.4L247.318 73.65L245.968 74.25L244.318 70.65L246.118 66.3L260.818 30L255.418 28.2L246.268 38.4L238.768 45.45L211.168 76.05L209.368 74.4L221.068 61.5L220.318 60.75L216.718 64.65L208.618 75.3H200.518L226.768 44.7L226.618 42.75L251.968 14.7L267.718 20.1C268.918 21.45 269.668 22.65 269.818 23.85L272.368 24.6L267.568 36.6L269.068 39.6L263.518 53.4L277.018 39.3L279.868 36.9L298.618 17.4L306.418 18.15ZM254.968 26.25L261.868 28.5L262.768 27.45L254.518 24.75L244.768 35.55L245.818 36.45L254.968 26.25ZM268.168 51.15L278.068 40.95L277.468 40.35L267.568 50.55L268.168 51.15ZM400.933 22.8L389.983 26.1L362.683 53.85L363.433 54.6L391.633 27.45L394.183 30L350.233 73.8L349.933 73.35C348.733 71.1 347.533 69 346.483 67.05L343.933 64.2L342.733 62.7C342.433 62.4 342.283 62.25 342.283 62.1L341.833 61.8L338.833 58.65L336.883 55.95L333.283 51L333.433 50.7L333.133 50.55L339.283 29.55L340.483 25.05L343.483 23.4L355.783 16.2L343.933 49.5L351.283 59.25L358.483 52.05L361.033 47.55L365.533 42.9L363.733 46.8L367.933 42.6L366.433 40.65L386.383 20.7L410.833 9.45L412.633 11.1L400.933 22.8ZM403.03 26.85L421.33 21.75L423.13 23.4L415.48 31.05L413.98 31.2L414.88 32.1L383.23 63.75L383.68 64.05L374.23 73.5L371.08 70.35L368.38 69.75L368.53 64.8L391.63 41.7L390.13 39.75L403.03 26.85ZM395.98 42.75L409.93 31.65L402.43 32.25L401.53 33.3L403.48 35.25L395.98 42.75ZM431.83 15.75L429.88 14.25L428.68 15.45L430.03 17.1L427.63 19.5L426.73 20.55L420.88 16.5L419.53 14.55L419.98 14.1L427.78 6L429.28 5.4L433.33 1.2L434.68 2.55L433.03 4.35L433.63 4.95L434.53 4.05L435.43 4.95L434.83 5.7L436.18 7.5L434.68 9L436.33 11.1L431.83 15.75ZM426.73 10.65L429.43 7.95L428.68 7.05L425.83 9.9L426.73 10.65ZM443.943 23.1L462.543 7.34999V46.2L453.243 79.95H450.843V57.9L451.743 55.5H450.543V33.45L420.843 58.65H426.543L426.693 56.25H437.793L447.843 65.55V67.95H441.243L440.493 67.05V68.25H413.493V68.85H409.743L396.693 79.95L393.693 76.5L389.943 76.65L393.243 69.45L444.543 25.8C444.393 25.05 444.093 24.15 443.943 23.1ZM434.343 59.7V62.55H427.893L438.693 64.5L435.243 59.7H434.343ZM459.093 37.35V34.65H456.243V21L450.093 26.25L455.793 21.9L454.293 49.2L459.093 37.35ZM592.55 8.55L537.05 36C536.75 36.45 536.75 36.75 536.75 36.9C536.9 37.2 537.2 37.2 537.8 37.2C536.3 37.35 535.1 37.5 534.2 37.35L531.95 38.4L540.95 36.75C540.8 37.05 540.8 37.2 540.8 37.35C540.8 37.5 540.95 37.5 540.95 37.65C541.1 37.8 541.55 37.8 541.85 37.95L545.45 39L552.95 41.25L559.4 43.2L560.3 42L560.45 39.45L564.8 36.15L576.35 21L583.7 21.75L584.3 26.4L567.8 48H567.65L562.4 55.05L559.4 61.35L559.55 58.65L557.3 61.65L559.1 63.3L548.45 77.1L531.35 84L529.55 82.5L535.7 74.4L543.95 72.75L559.85 51.9V51.75L542 71.55L539.3 69.3L555.35 48.3L548.6 48.45L542.75 45.75L541.25 45.15C540.65 44.85 540.05 44.7 539.6 44.55C538.55 44.1 537.65 43.65 537.05 43.2L527 43.35L512.9 43.65L525.5 37.35L532.4 33.9L532.55 33.75L524.3 37.35C519.35 39.6 515 41.85 510.95 44.1C515.45 44.25 519.5 44.55 523.1 45.15L536.15 45.45L534.05 48.9L514.25 49.35L510.05 44.25L511.55 37.8L543.2 22.2L545.9 19.35L555.5 16.2L587.3 0.299996L596.6 2.7L592.55 8.55ZM589.827 69.15L634.227 71.55L644.577 78.3L635.127 81.15L553.227 76.8L594.627 53.85L610.227 43.65L605.877 47.7L614.727 42.75L614.127 40.35L629.427 31.8L620.277 20.25L618.927 17.55L618.177 16.35C618.177 16.05 618.027 15.75 617.877 15.6C618.027 15.6 618.027 15.6 618.027 15.45C618.027 14.85 617.877 14.1 617.577 12.9C617.127 12.75 616.677 12.75 616.077 12.9C615.777 12.9 615.477 13.05 615.027 13.2C614.727 13.2 613.977 13.65 613.377 13.8L606.027 17.4L591.327 24.45L589.827 22.5L614.127 3.75C615.927 2.84999 617.427 2.1 618.927 1.5C621.027 5.4 622.677 8.7 623.877 11.25L626.427 18L639.027 33.75L594.327 58.5L593.877 58.95L641.427 34.2L627.927 16.2L630.627 14.1L647.727 35.55L588.477 68.25C589.377 68.4 590.577 68.25 592.077 67.95L591.477 68.1C590.127 68.4 589.677 68.7 589.827 69.15Z" fill="#FFF61C"/>
</g>
<defs>
<filter id="filter0_d_67_24" x="0.400391" y="0.299805" width="651.326" height="119" filterUnits="userSpaceOnUse" color-interpolation-filters="sRGB">
<feFlood flood-opacity="0" result="BackgroundImageFix"/>
<feColorMatrix in="SourceAlpha" type="matrix" values="0 0 0 0 0 0 0 0 0 0 0 0 0 0 0 0 0 0 127 0" result="hardAlpha"/>
<feOffset dy="4"/>
<feGaussianBlur stdDeviation="2"/>
<feComposite in2="hardAlpha" operator="out"/>
<feColorMatrix type="matrix" values="0 0 0 0 0 0 0 0 0 0 0 0 0 0 0 0 0 0 0.25 0"/>
<feBlend mode="normal" in2="BackgroundImageFix" result="effect1_dropShadow_67_24"/>
<feBlend mode="normal" in="SourceGraphic" in2="effect1_dropShadow_67_24" result="shape"/>
</filter>
</defs>
</svg>
