<svg width="16" height="18" viewBox="0 0 16 18" fill="none" xmlns="http://www.w3.org/2000/svg">
<g id="Group">
<path id="Vector" d="M4.01563 17.2377V14.0697C2.33905 13.4885 1.21277 11.5368 1.21277 9.24311C1.21277 7.87639 1.52134 6.44796 3.03848 6.44796H6.88663C7.22898 6.44828 7.55983 6.57155 7.81893 6.79531C8.07803 7.01907 8.24815 7.32845 8.29831 7.6671C8.34847 8.00576 8.27533 8.35117 8.09222 8.64043C7.9091 8.92969 7.62819 9.14357 7.30063 9.24311L5.10205 9.91039C6.22577 9.91039 7.60663 10.9775 7.57705 12.3597M11.6193 17.239V14.0697C11.6193 14.0697 12.3741 13.693 13.1622 12.9382C14.6806 11.4841 14.8786 9.18525 14.4685 7.12296C14.3309 6.43639 14.1342 5.73953 13.8552 5.15325M2.43034 6.35411V3.92925C2.43034 3.42509 2.63062 2.94158 2.98711 2.58509C3.3436 2.2286 3.82711 2.02832 4.33127 2.02832C4.83543 2.02832 5.31894 2.2286 5.67543 2.58509C6.03192 2.94158 6.2322 3.42509 6.2322 3.92925V6.35411" stroke="#CCCCCC" stroke-linecap="round" stroke-linejoin="round"/>
<path id="Vector_2" d="M6.23221 5.85537V2.66423C6.22561 2.41027 6.26993 2.15755 6.36255 1.92099C6.45518 1.68443 6.59424 1.46881 6.77153 1.28685C6.94882 1.10489 7.16075 0.960273 7.39482 0.86153C7.6289 0.762786 7.88037 0.711914 8.13442 0.711914C8.38847 0.711914 8.63995 0.762786 8.87403 0.86153C9.1081 0.960273 9.32003 1.10489 9.49732 1.28685C9.67461 1.46881 9.81367 1.68443 9.9063 1.92099C9.99892 2.15755 10.0432 2.41027 10.0366 2.66423V5.85537C10.0361 6.33411 9.85522 6.79507 9.52994 7.14632C9.20466 7.49758 8.75893 7.71332 8.28164 7.75051" stroke="#CCCCCC" stroke-linecap="round" stroke-linejoin="round"/>
<path id="Vector_3" d="M10.0367 3.93051C10.0301 3.67671 10.0743 3.42417 10.1669 3.18776C10.2595 2.95136 10.3984 2.73588 10.5756 2.55404C10.7528 2.37221 10.9646 2.22769 11.1985 2.12901C11.4324 2.03033 11.6837 1.97949 11.9376 1.97949C12.1915 1.97949 12.4428 2.03033 12.6767 2.12901C12.9106 2.22769 13.1224 2.37221 13.2996 2.55404C13.4767 2.73588 13.6157 2.95136 13.7083 3.18776C13.8008 3.42417 13.8451 3.67671 13.8385 3.93051V5.56336C13.8451 5.81716 13.8008 6.0697 13.7083 6.30611C13.6157 6.54251 13.4767 6.75798 13.2996 6.93982C13.1224 7.12166 12.9106 7.26618 12.6767 7.36486C12.4428 7.46354 12.1915 7.51438 11.9376 7.51438C11.6837 7.51438 11.4324 7.46354 11.1985 7.36486C10.9646 7.26618 10.7528 7.12166 10.5756 6.93982C10.3984 6.75798 10.2595 6.54251 10.1669 6.30611C10.0743 6.0697 10.0301 5.81716 10.0367 5.56336V3.93051Z" stroke="#CCCCCC" stroke-linecap="round" stroke-linejoin="round"/>
</g>
</svg>
