<svg width="64" height="64" viewBox="0 0 64 64" fill="none" xmlns="http://www.w3.org/2000/svg">
<path d="M16.0001 24H21.3334V40H16.0001V24ZM42.6667 24H48.0001V40H42.6667V24ZM56.0001 8C58.9334 8 61.3334 10.4 61.3334 13.3333V50.6667C61.3334 53.6 58.9334 56 56.0001 56H8.00008C5.06675 56 2.66675 53.6 2.66675 50.6667V13.3333C2.66675 10.4 5.06675 8 8.00008 8H56.0001ZM13.3334 18.6667C11.7334 18.6667 10.6667 19.7333 10.6667 21.3333V42.6667C10.6667 44.2667 11.7334 45.3333 13.3334 45.3333H24.0001C25.6001 45.3333 26.6667 44.2667 26.6667 42.6667V21.3333C26.6667 19.7333 25.6001 18.6667 24.0001 18.6667H13.3334ZM40.0001 18.6667C38.4001 18.6667 37.3334 19.7333 37.3334 21.3333V42.6667C37.3334 44.2667 38.4001 45.3333 40.0001 45.3333H50.6667C52.2668 45.3333 53.3334 44.2667 53.3334 42.6667V21.3333C53.3334 19.7333 52.2668 18.6667 50.6667 18.6667H40.0001ZM32.0001 29.3333C33.6001 29.3333 34.6667 28.2667 34.6667 26.6667C34.6667 25.0667 33.6001 24 32.0001 24C30.4001 24 29.3334 25.0667 29.3334 26.6667C29.3334 28.2667 30.4001 29.3333 32.0001 29.3333ZM32.0001 40C33.6001 40 34.6667 38.9333 34.6667 37.3333C34.6667 35.7333 33.6001 34.6667 32.0001 34.6667C30.4001 34.6667 29.3334 35.7333 29.3334 37.3333C29.3334 38.9333 30.4001 40 32.0001 40Z" fill="#CCCCCC"/>
</svg>
