<svg width="30" height="30" viewBox="0 0 30 30" fill="none" xmlns="http://www.w3.org/2000/svg">
<path d="M15 2.5C16.6415 2.5 18.267 2.82332 19.7835 3.45151C21.3001 4.07969 22.6781 5.00043 23.8388 6.16117C24.9996 7.3219 25.9203 8.69989 26.5485 10.2165C27.1767 11.733 27.5 13.3585 27.5 15C27.5 18.3152 26.183 21.4946 23.8388 23.8388C21.4946 26.183 18.3152 27.5 15 27.5C13.3585 27.5 11.733 27.1767 10.2165 26.5485C8.69989 25.9203 7.3219 24.9996 6.16117 23.8388C3.81696 21.4946 2.5 18.3152 2.5 15C2.5 11.6848 3.81696 8.50537 6.16117 6.16117C8.50537 3.81696 11.6848 2.5 15 2.5ZM10 9.6375V13.8125L18.925 15L10 16.1875V20.3625L22.5 15L10 9.6375Z" fill="#CCCCCC"/>
</svg>
