<svg width="40" height="40" viewBox="0 0 40 40" fill="none" xmlns="http://www.w3.org/2000/svg">
<g id="material-symbols:cancel">
<path id="Vector" d="M14 28.3335L20 22.3335L26 28.3335L28.3333 26.0002L22.3333 20.0002L28.3333 14.0002L26 11.6668L20 17.6668L14 11.6668L11.6667 14.0002L17.6667 20.0002L11.6667 26.0002L14 28.3335ZM20 36.6668C17.6945 36.6668 15.5278 36.2291 13.5 35.3535C11.4722 34.4779 9.70834 33.2907 8.20834 31.7918C6.70834 30.2918 5.52112 28.5279 4.64668 26.5002C3.77223 24.4724 3.33445 22.3057 3.33334 20.0002C3.33334 17.6946 3.77112 15.5279 4.64668 13.5002C5.52223 11.4724 6.70946 9.7085 8.20834 8.2085C9.70834 6.7085 11.4722 5.52127 13.5 4.64683C15.5278 3.77239 17.6945 3.33461 20 3.3335C22.3056 3.3335 24.4722 3.77127 26.5 4.64683C28.5278 5.52239 30.2917 6.70961 31.7917 8.2085C33.2917 9.7085 34.4795 11.4724 35.355 13.5002C36.2306 15.5279 36.6678 17.6946 36.6667 20.0002C36.6667 22.3057 36.2289 24.4724 35.3533 26.5002C34.4778 28.5279 33.2906 30.2918 31.7917 31.7918C30.2917 33.2918 28.5278 34.4796 26.5 35.3552C24.4722 36.2307 22.3056 36.6679 20 36.6668Z" fill="#CCCCCC"/>
</g>
</svg>
