<svg width="40" height="40" viewBox="0 0 40 40" fill="none" xmlns="http://www.w3.org/2000/svg">
<path d="M26.2082 14.1331C27.3132 14.1331 28.373 13.6942 29.1544 12.9127C29.9359 12.1313 30.3748 11.0715 30.3748 9.96647C30.3748 8.8614 29.9359 7.80159 29.1544 7.02019C28.373 6.23879 27.3132 5.7998 26.2082 5.7998C25.1031 5.7998 24.0433 6.23879 23.2619 7.02019C22.4805 7.80159 22.0415 8.8614 22.0415 9.96647C22.0415 11.0715 22.4805 12.1313 23.2619 12.9127C24.0433 13.6942 25.1031 14.1331 26.2082 14.1331Z" stroke="#CCCCCC" stroke-width="2" stroke-miterlimit="2"/>
<path d="M29.9999 28.3327L28.3333 19.166L19.1666 23.3327L8.33325 20.8327M3.33325 34.191H36.6666" stroke="#CCCCCC" stroke-width="2" stroke-miterlimit="2" stroke-linecap="round" stroke-linejoin="round"/>
<path d="M7.49992 24.9993C9.80111 24.9993 11.6666 23.1339 11.6666 20.8327C11.6666 18.5315 9.80111 16.666 7.49992 16.666C5.19873 16.666 3.33325 18.5315 3.33325 20.8327C3.33325 23.1339 5.19873 24.9993 7.49992 24.9993Z" fill="#CCCCCC"/>
<path d="M4.99992 15.8333C5.92039 15.8333 6.66659 15.0871 6.66659 14.1667C6.66659 13.2462 5.92039 12.5 4.99992 12.5C4.07944 12.5 3.33325 13.2462 3.33325 14.1667C3.33325 15.0871 4.07944 15.8333 4.99992 15.8333Z" fill="#CCCCCC"/>
<path d="M28.3332 19.166L36.6665 24.166L24.1665 28.3327" stroke="#CCCCCC" stroke-width="2" stroke-miterlimit="2" stroke-linecap="round" stroke-linejoin="round"/>
</svg>
