<svg width="64" height="64" viewBox="0 0 64 64" fill="none" xmlns="http://www.w3.org/2000/svg">
<path d="M16 53.3334C14.5333 53.3334 13.2782 52.8116 12.2347 51.768C11.1911 50.7245 10.6684 49.4685 10.6667 48V42.6667C10.6667 41.9112 10.9227 41.2783 11.4347 40.768C11.9467 40.2578 12.5795 40.0018 13.3333 40C14.0889 40 14.7227 40.256 15.2347 40.768C15.7467 41.28 16.0018 41.9129 16 42.6667V48H48V42.6667C48 41.9112 48.256 41.2783 48.768 40.768C49.28 40.2578 49.9129 40.0018 50.6667 40C51.4222 40 52.056 40.256 52.568 40.768C53.08 41.28 53.3351 41.9129 53.3333 42.6667V48C53.3333 49.4667 52.8115 50.7227 51.768 51.768C50.7244 52.8134 49.4684 53.3352 48 53.3334H16ZM29.3333 20.9334L24.3333 25.9334C23.8 26.4667 23.1671 26.7227 22.4347 26.7014C21.7022 26.68 21.0684 26.4018 20.5333 25.8667C20.0444 25.3334 19.7884 24.7112 19.7653 24C19.7422 23.2889 19.9982 22.6667 20.5333 22.1334L30.1333 12.5334C30.4 12.2667 30.6889 12.0783 31 11.968C31.3111 11.8578 31.6444 11.8018 32 11.8C32.3555 11.8 32.6889 11.856 33 11.968C33.3111 12.08 33.6 12.2685 33.8667 12.5334L43.4667 22.1334C44 22.6667 44.256 23.2889 44.2347 24C44.2133 24.7112 43.9573 25.3334 43.4667 25.8667C42.9333 26.4 42.3004 26.6783 41.568 26.7014C40.8355 26.7245 40.2018 26.4685 39.6667 25.9334L34.6667 20.9334V40C34.6667 40.7556 34.4107 41.3894 33.8987 41.9014C33.3867 42.4134 32.7538 42.6685 32 42.6667C31.2444 42.6667 30.6115 42.4107 30.1013 41.8987C29.5911 41.3867 29.3351 40.7538 29.3333 40V20.9334Z" fill="#CCCCCC"/>
</svg>
