<svg width="18" height="18" viewBox="0 0 18 18" fill="none" xmlns="http://www.w3.org/2000/svg">
<path d="M6.75 3.37497H6C4.23225 3.37497 3.348 3.37497 2.799 3.92397C2.25 4.47297 2.25 5.35722 2.25 7.12497V10.875C2.25 12.6427 2.25 13.5262 2.799 14.076C3.348 14.625 4.23225 14.625 6 14.625H6.75M6.75 4.85697C6.75 3.13722 6.75 2.27697 7.28025 1.80672C7.8105 1.33647 8.62125 1.47747 10.2427 1.76022L11.9903 2.06547C13.7858 2.37822 14.6835 2.53497 15.2167 3.19347C15.75 3.85272 15.75 4.80522 15.75 6.71097V11.2897C15.75 13.1947 15.75 14.1472 15.2175 14.8065C14.6835 15.465 13.785 15.6217 11.9895 15.9352L10.2435 16.2397C8.622 16.5225 7.81125 16.6635 7.281 16.1932C6.75 15.723 6.75 14.8627 6.75 13.143V4.85697Z" stroke="#CCCCCC" stroke-width="2"/>
<path d="M9 8.25V9.75" stroke="#CCCCCC" stroke-width="2" stroke-linecap="round"/>
</svg>
