<svg width="18" height="18" viewBox="0 0 18 18" fill="none" xmlns="http://www.w3.org/2000/svg">
<g opacity="0.4">
<path d="M13.5 13.5H13.3857C13.251 12.8438 13.0137 12.2402 12.6738 11.6895C12.334 11.1387 11.9209 10.6641 11.4346 10.2656C10.9482 9.86719 10.4004 9.55664 9.79102 9.33398C9.18164 9.11133 8.54297 9 7.875 9C7.35938 9 6.86133 9.06738 6.38086 9.20215C5.90039 9.33691 5.45215 9.52441 5.03613 9.76465C4.62012 10.0049 4.24219 10.2979 3.90234 10.6436C3.5625 10.9893 3.26953 11.3701 3.02344 11.7861C2.77734 12.2021 2.58691 12.6504 2.45215 13.1309C2.31738 13.6113 2.25 14.1094 2.25 14.625H1.125C1.125 13.9219 1.22754 13.2451 1.43262 12.5947C1.6377 11.9443 1.93359 11.3438 2.32031 10.793C2.70703 10.2422 3.16406 9.75293 3.69141 9.3252C4.21875 8.89746 4.81641 8.56055 5.48438 8.31445C4.82227 7.88086 4.30664 7.33594 3.9375 6.67969C3.56836 6.02344 3.38086 5.29688 3.375 4.5C3.375 3.87891 3.49219 3.2959 3.72656 2.75098C3.96094 2.20605 4.28027 1.72852 4.68457 1.31836C5.08887 0.908203 5.56641 0.585938 6.11719 0.351562C6.66797 0.117188 7.25391 0 7.875 0C8.49609 0 9.0791 0.117188 9.62402 0.351562C10.1689 0.585938 10.6465 0.905273 11.0566 1.30957C11.4668 1.71387 11.7891 2.19141 12.0234 2.74219C12.2578 3.29297 12.375 3.87891 12.375 4.5C12.375 4.88672 12.3281 5.26465 12.2344 5.63379C12.1406 6.00293 12 6.35156 11.8125 6.67969C11.625 7.00781 11.4053 7.30957 11.1533 7.58496C10.9014 7.86035 10.6055 8.10352 10.2656 8.31445C10.9219 8.56641 11.5254 8.91211 12.0762 9.35156C12.627 9.79102 13.1016 10.3066 13.5 10.8984V13.5ZM4.5 4.5C4.5 4.96875 4.58789 5.40527 4.76367 5.80957C4.93945 6.21387 5.17969 6.57129 5.48438 6.88184C5.78906 7.19238 6.14648 7.43555 6.55664 7.61133C6.9668 7.78711 7.40625 7.875 7.875 7.875C8.33789 7.875 8.77441 7.78711 9.18457 7.61133C9.59473 7.43555 9.95215 7.19531 10.2568 6.89062C10.5615 6.58594 10.8047 6.22852 10.9863 5.81836C11.168 5.4082 11.2559 4.96875 11.25 4.5C11.25 4.03711 11.1621 3.60059 10.9863 3.19043C10.8105 2.78027 10.5703 2.42285 10.2656 2.11816C9.96094 1.81348 9.60059 1.57031 9.18457 1.38867C8.76855 1.20703 8.33203 1.11914 7.875 1.125C7.40625 1.125 6.96973 1.21289 6.56543 1.38867C6.16113 1.56445 5.80371 1.80469 5.49316 2.10938C5.18262 2.41406 4.93945 2.77441 4.76367 3.19043C4.58789 3.60645 4.5 4.04297 4.5 4.5ZM15.75 14.625H18V15.75H15.75V18H14.625V15.75H12.375V14.625H14.625V12.375H15.75V14.625Z" fill="#CCCCCC"/>
</g>
</svg>
