<svg width="18" height="18" viewBox="0 0 18 18" fill="none" xmlns="http://www.w3.org/2000/svg">
<path d="M8.99996 3C9.79561 3 10.5587 3.31607 11.1213 3.87868C11.6839 4.44129 12 5.20435 12 6C12 7.4625 10.95 8.685 9.56246 8.9475L6.05246 5.4375C6.18391 4.75197 6.55005 4.13364 7.08796 3.68881C7.62587 3.24397 8.30194 3.00041 8.99996 3ZM9.20996 10.5L13.71 15L15 16.29L14.0475 17.25L11.7975 15H2.99996V13.5C2.99996 12.12 4.87496 10.9575 7.40246 10.605L2.08496 5.2875L3.03746 4.335L9.20996 10.5ZM15 13.5V14.385L11.355 10.74C13.5 11.1975 15 12.2625 15 13.5Z" fill="#CCCCCC"/>
</svg>
